<?xml version="1.0" standalone="no"?>
<!DOCTYPE svg PUBLIC "-//W3C//DTD SVG 20010904//EN"
 "http://www.w3.org/TR/2001/REC-SVG-20010904/DTD/svg10.dtd">
<svg version="1.0" xmlns="http://www.w3.org/2000/svg"
 width="692.000000pt" height="153.000000pt" viewBox="0 0 692.000000 153.000000"
 preserveAspectRatio="xMidYMid meet">
<g transform="translate(0.000000,153.000000) scale(0.100000,-0.100000)"
fill="#000000" stroke="none">
<path d="M225 1363 c14 -82 60 -207 94 -256 55 -78 105 -109 188 -114 53 -4
82 0 133 17 89 30 211 97 303 168 94 72 237 201 237 213 0 5 -200 9 -480 9
l-481 0 6 -37z"/>
<path d="M1520 850 l0 -420 40 0 40 0 0 45 c0 51 7 55 38 20 87 -100 290 -91
388 17 59 66 78 120 78 218 -1 106 -26 171 -91 231 -61 56 -104 73 -188 72
-80 0 -150 -25 -186 -67 -12 -14 -27 -26 -31 -26 -5 0 -8 26 -7 58 1 31 1 105
0 165 l-1 107 -40 0 -40 0 0 -420z m375 91 c138 -62 171 -264 61 -376 -59 -60
-126 -77 -208 -55 -181 51 -198 353 -24 430 53 24 121 24 171 1z"/>
<path d="M4810 1104 l0 -166 -37 32 c-55 48 -98 64 -183 64 -65 0 -82 -4 -129
-29 -62 -34 -123 -109 -140 -170 -17 -64 -13 -168 9 -227 27 -73 70 -122 137
-155 47 -22 70 -27 128 -26 79 1 127 18 180 64 l35 31 0 -46 0 -46 45 0 45 0
0 420 0 420 -45 0 -45 0 0 -166z m-89 -181 c24 -16 53 -47 66 -73 21 -39 24
-56 21 -125 -4 -97 -27 -147 -87 -190 -37 -26 -51 -30 -110 -30 -58 0 -75 4
-116 30 -121 75 -138 264 -33 365 49 48 85 61 160 56 42 -3 68 -12 99 -33z"/>
<path d="M1110 1207 c-166 -155 -338 -270 -475 -317 -85 -29 -194 -27 -260 5
-62 31 -67 31 -61 3 80 -399 78 -391 117 -430 l37 -38 231 0 c254 0 277 4 305
58 17 33 49 177 111 492 25 129 47 243 49 253 6 26 -4 21 -54 -26z"/>
<path d="M2419 1031 c-93 -19 -187 -110 -210 -204 -6 -27 -9 -83 -7 -125 7
-121 57 -201 156 -249 46 -22 69 -27 127 -27 80 1 126 18 178 64 l37 32 0 -46
0 -46 45 0 45 0 0 300 0 300 -45 0 -45 0 0 -46 0 -46 -42 36 c-65 56 -146 75
-239 57z m194 -108 c127 -89 116 -334 -19 -398 -64 -30 -128 -30 -190 0 -67
33 -100 79 -116 161 -21 112 39 230 132 262 59 19 147 8 193 -25z"/>
<path d="M3173 1030 c-37 -9 -76 -31 -116 -69 -26 -24 -29 -24 -27 -6 1 11 2
32 1 48 -1 25 -4 27 -41 27 l-40 0 0 -300 0 -300 40 0 40 0 0 61 c0 264 5 334
28 374 36 63 83 90 158 90 67 0 99 -15 137 -66 30 -41 37 -93 37 -281 l0 -178
40 0 c47 0 42 -28 40 235 -1 200 -11 244 -72 304 -58 59 -141 81 -225 61z"/>
<path d="M3799 1026 c-75 -20 -155 -90 -187 -165 -19 -46 -21 -181 -3 -243 15
-54 67 -119 120 -153 101 -63 257 -49 330 29 14 14 29 26 33 26 5 0 9 -24 8
-52 -1 -29 -1 -104 -1 -165 l1 -113 40 0 40 0 0 420 0 420 -40 0 -40 0 0 -45
c0 -25 -2 -45 -4 -45 -2 0 -21 16 -42 35 -64 59 -158 77 -255 51z m171 -82
c136 -55 173 -266 66 -382 -73 -81 -213 -80 -293 4 -107 111 -75 314 59 374
50 22 118 24 168 4z"/>
<path d="M5272 1018 c-50 -24 -98 -70 -115 -107 -11 -23 -12 -18 -15 47 l-3
72 -39 0 -40 0 0 -300 0 -300 40 0 40 0 0 54 c0 146 9 275 22 312 30 85 111
154 182 154 26 0 27 2 24 43 -3 37 -6 42 -28 44 -14 1 -44 -7 -68 -19z"/>
<path d="M5634 1026 c-79 -20 -142 -73 -185 -156 -33 -64 -34 -203 -1 -275 86
-188 335 -230 480 -82 52 53 72 102 79 192 14 182 -91 315 -262 329 -34 3 -82
0 -111 -8z m199 -103 c70 -49 101 -143 84 -253 -20 -129 -163 -206 -282 -151
-168 76 -168 344 0 423 58 27 145 19 198 -19z"/>
<path d="M6358 1027 c-48 -14 -63 -23 -110 -66 l-28 -25 0 47 0 47 -40 0 -40
0 0 -420 0 -420 40 0 40 0 0 165 c0 91 2 165 4 165 2 0 19 -14 37 -31 49 -46
94 -62 175 -62 172 -1 286 120 286 303 0 99 -25 163 -87 225 -71 72 -178 99
-277 72z m134 -77 c49 -14 93 -52 121 -104 31 -58 31 -174 -1 -233 -68 -130
-242 -150 -339 -40 -38 43 -53 91 -53 167 1 152 127 250 272 210z"/>
</g>
</svg>
