<?xml version="1.0" standalone="no"?>
<!DOCTYPE svg PUBLIC "-//W3C//DTD SVG 20010904//EN"
 "http://www.w3.org/TR/2001/REC-SVG-20010904/DTD/svg10.dtd">
<svg version="1.0" xmlns="http://www.w3.org/2000/svg"
 width="643.000000pt" height="611.000000pt" viewBox="0 0 643.000000 611.000000"
 preserveAspectRatio="xMidYMid meet">
<metadata>
Created by potrace 1.16, written by Peter Selinger 2001-2019
</metadata>
<g transform="translate(0.000000,611.000000) scale(0.100000,-0.100000)"
fill="#1E353D" stroke="none">
<path d="M323 5753 c3 -27 17 -106 31 -178 14 -71 27 -141 30 -155 2 -14 8
-43 14 -65 6 -22 19 -71 28 -110 107 -456 278 -880 471 -1168 75 -112 251
-300 345 -369 56 -40 242 -152 257 -154 3 0 49 -14 101 -31 170 -56 250 -66
480 -60 157 3 228 10 304 26 54 12 108 23 120 25 32 7 209 56 226 63 8 4 17 7
20 8 7 2 19 7 185 72 155 61 470 215 610 298 50 30 94 54 98 54 4 1 13 6 20
11 15 13 187 120 193 120 2 0 12 6 21 14 25 20 244 166 249 166 2 0 12 7 21
15 10 8 99 73 198 146 99 72 225 167 280 211 55 43 113 89 128 101 121 95 432
385 862 802 153 149 187 187 175 195 -10 6 -956 10 -2743 10 l-2729 0 5 -47z"/>
<path d="M5605 4966 c-44 -45 -253 -239 -386 -360 -178 -161 -228 -206 -339
-301 -471 -404 -929 -739 -1350 -987 -220 -130 -630 -331 -630 -310 0 4 -4 2
-8 -4 -14 -22 -340 -131 -487 -164 -197 -44 -272 -52 -490 -53 -170 0 -239 4
-305 17 -112 23 -290 77 -290 88 0 5 -4 7 -10 3 -24 -15 -410 206 -410 236 0
5 -6 9 -14 9 -7 0 -19 7 -26 16 -8 8 -22 20 -32 25 -18 10 -19 8 -13 -33 9
-60 10 -66 24 -128 14 -68 91 -456 96 -490 2 -14 11 -59 20 -100 9 -41 18 -86
20 -100 3 -14 31 -158 64 -320 32 -162 62 -311 66 -330 12 -64 14 -74 30 -150
9 -41 18 -86 20 -100 2 -14 6 -36 9 -50 3 -14 8 -36 11 -50 10 -57 57 -273 81
-378 15 -62 42 -145 60 -183 19 -38 34 -72 34 -75 0 -3 4 -10 10 -17 5 -7 34
-43 64 -82 100 -131 215 -210 390 -271 l70 -24 1180 0 1181 0 80 31 c86 32
211 105 260 151 17 15 33 28 37 28 13 0 130 164 162 229 19 36 43 98 54 136
20 68 28 102 78 345 14 63 27 126 30 140 3 14 7 34 9 45 4 27 44 229 56 285
10 45 33 161 69 345 11 55 31 154 45 220 31 149 34 163 39 200 3 17 28 140 56
275 28 135 51 252 52 260 0 8 9 56 20 105 10 50 27 135 38 190 10 55 26 134
35 175 8 41 23 111 31 155 9 44 24 121 35 170 11 50 22 104 25 120 19 102 51
268 90 460 50 245 50 246 59 295 4 19 20 102 36 183 31 157 33 178 22 175 -5
0 -31 -24 -58 -52z"/>
</g>
</svg>
